<?xml version="1.0" encoding="utf-8"?>
<!-- Svg Vector Icons : http://www.onlinewebfonts.com/icon -->
<!DOCTYPE svg PUBLIC "-//W3C//DTD SVG 1.1//EN" "http://www.w3.org/Graphics/SVG/1.1/DTD/svg11.dtd">
<svg version="1.1" xmlns="http://www.w3.org/2000/svg" xmlns:xlink="http://www.w3.org/1999/xlink" x="0px" y="0px" viewBox="0 0 256 256" enable-background="new 0 0 256 256" xml:space="preserve">
<metadata> Svg Vector Icons : http://www.onlinewebfonts.com/icon </metadata>
<g><g><g><path fill="#000000" d="M126.3,10.4c-0.5,0.2-1.3,0.7-1.9,1.2c-1,0.8-1,2.6-1,21.1v20.2h-19.9c-19.2,0-19.9,0.1-21.4,1.2l-1.5,1.2v23.3c0,19.2,0.1,23.5,0.8,24.5c0.8,1,1.9,1.1,21.3,1.4l20.5,0.3l0.3,20.5c0.3,19.4,0.3,20.5,1.4,21.3c0.9,0.6,5.2,0.8,24.2,0.8h23.1l1.4-1.4l1.4-1.4v-20v-20h20.2c19.8,0,20.2,0,21.3-1.2c1-1.2,1.1-2.6,1.3-24l0.2-22.9l-1.7-1.7l-1.7-1.7h-19.8h-19.8V33.1V13.4l-1.7-1.7l-1.7-1.7l-22.2,0.1C137.1,10.1,126.7,10.2,126.3,10.4z M165.8,39.3c0.2,19.9,0.2,20,1.5,21.3c1.3,1.3,1.4,1.3,21.3,1.5l20,0.2v16.7v16.8h-19.8c-21.4,0.1-21.3,0-22.5,3.1c-0.3,1-0.6,8.9-0.6,20.7v19.1h-16.8H132v-20v-20l-1.5-1.4l-1.4-1.4h-20h-20V79V62.2l20-0.2l20-0.2l1.4-1.6l1.4-1.6V38.9V19.3h16.8h16.7L165.8,39.3z"/><path fill="#000000" d="M79,157c-0.9,0.1-7.7,1.4-15,2.8c-14.4,2.8-23.8,4.2-28.5,4.3c-3.9,0-6,1.6-6,4.4c0,1.2,0.5,2.4,1.2,3.1c2.3,2.3,12.2,1.5,35.7-3.2c17-3.4,20.6-3.7,26.7-2.1c8.1,2.1,25.8,9.6,41.4,17.6c5.9,3,7,3.8,8.2,5.9c1.8,3.1,2,7.8,0.3,10.8c-1.5,2.8-5.2,4.6-9.2,4.6c-3.2,0-20.6-4-33.8-7.8c-6.1-1.8-7.4-2-8.8-1.4c-3,1.2-3.7,4.1-1.4,6.6c1.5,1.7,6.3,3.2,26.5,8.2c14.6,3.7,19.4,4.1,24.7,2.3c4.2-1.4,8.4-5.3,10.5-9.8l1.7-3.6l27.2-6.6c21.8-5.3,27.8-6.5,29.9-6.3c4.6,0.5,7.8,3.7,8.3,8.5c0.3,3.5-1.4,7.5-4.2,9.7c-3.4,2.6-41.9,20.7-54.6,25.7c-12.2,4.8-19.5,6.4-30,6.4c-7.9,0-12.2-0.9-34.2-7c-29.8-8.3-38.8-9.9-54.6-10c-10.1-0.1-10.6,0-11.8,1.2c-1.7,1.7-1.7,4.5,0,6.1c1.2,1.2,1.9,1.3,13.6,1.6c16,0.5,21.5,1.6,53.1,10.4c22.1,6.1,24.5,6.6,33.9,6.5c17.6-0.1,27.8-3.4,67.8-22.5c19.8-9.4,21-10.1,24.3-13.3c9-9,7.1-24.1-3.8-30.1c-2.5-1.4-3.9-1.7-8-1.9c-4.6-0.2-6.4,0.2-30.1,6c-13.8,3.4-25.7,6.2-26.3,6.3c-0.8,0.1-1.3-0.5-1.9-2.3c-0.5-1.3-2-3.8-3.5-5.4c-2.4-2.7-4.2-3.7-16.6-9.8c-14.8-7.2-26.9-12.3-35.3-14.7C91.5,156.6,84.7,156.2,79,157z"/></g></g></g>
</svg>